<?xml version="1.0" standalone="no"?>
<!DOCTYPE svg PUBLIC "-//W3C//DTD SVG 20010904//EN"
 "http://www.w3.org/TR/2001/REC-SVG-20010904/DTD/svg10.dtd">
<svg version="1.0" xmlns="http://www.w3.org/2000/svg"
 width="1024.000000pt" height="1536.000000pt" viewBox="0 0 1024.000000 1536.000000"
 preserveAspectRatio="xMidYMid meet">

<g transform="translate(0.000000,1536.000000) scale(0.100000,-0.100000)"
fill="#000000" stroke="none">
<path d="M4325 11184 c-222 -19 -448 -66 -600 -126 -284 -113 -523 -272 -715
-476 -184 -195 -294 -361 -380 -569 -91 -222 -142 -481 -161 -821 -5 -95 -14
-194 -19 -219 -16 -70 -100 -224 -196 -358 -227 -319 -253 -368 -254 -470 0
-39 6 -72 18 -92 31 -57 128 -121 239 -157 68 -23 76 -33 64 -87 -27 -114 -2
-212 67 -269 l35 -29 -22 -52 c-29 -66 -23 -96 32 -180 l42 -64 -1 -100 c0
-55 -2 -145 -3 -200 -4 -128 19 -196 89 -266 39 -39 63 -52 131 -75 76 -25 98
-28 224 -28 156 0 239 13 488 74 86 22 164 37 172 34 8 -3 19 -20 24 -37 12
-36 76 -393 86 -477 10 -79 23 -118 48 -135 19 -13 282 -15 2242 -15 l2222 0
21 23 22 23 0 1817 c0 1804 0 1817 -20 1837 -19 19 -33 20 -319 20 -270 0
-301 -2 -320 -18 l-22 -17 0 -1680 c1 -924 -3 -1693 -7 -1710 -11 -41 -53 -51
-171 -39 l-91 9 0 1273 c0 865 -3 1279 -10 1293 -10 18 -24 19 -330 19 -318 0
-319 0 -334 -22 -14 -20 -16 -159 -16 -1290 l0 -1268 -26 -10 c-28 -11 -185
-13 -221 -4 l-23 6 0 1038 c0 992 -1 1038 -18 1053 -16 15 -55 17 -335 17
-304 0 -318 -1 -337 -20 -20 -20 -20 -33 -20 -1050 l0 -1030 -26 -10 c-28 -11
-203 -14 -228 -4 -14 6 -16 64 -16 558 0 303 -4 556 -8 562 -20 30 -55 34
-337 34 l-287 0 -29 -29 -29 -29 0 -541 c0 -524 -1 -541 -19 -551 -31 -16
-682 -14 -705 3 -12 9 -29 64 -56 183 -65 291 -92 360 -157 410 -94 72 -192
75 -424 15 -268 -69 -518 -76 -579 -16 -28 28 -28 33 -15 235 9 137 -4 197
-60 279 l-35 51 19 38 c48 94 36 158 -41 225 l-51 44 27 117 c22 98 25 124 16
157 -15 55 -70 92 -192 130 -53 17 -107 38 -118 47 l-21 17 24 35 c13 19 66
96 117 170 51 74 113 164 137 200 53 79 137 241 153 295 6 22 15 123 20 225
20 390 73 647 177 855 142 282 335 497 613 682 135 90 302 164 481 213 257 70
580 78 869 24 561 -106 1026 -452 1260 -939 73 -152 145 -409 166 -597 4 -32
10 -60 14 -63 3 -2 57 47 119 109 l112 113 -15 67 c-44 188 -166 509 -244 643
-126 213 -419 510 -635 642 -162 99 -431 215 -594 255 -200 51 -530 84 -698
70z"/>
<path d="M7975 10974 c-71 -12 -193 -30 -270 -40 -77 -9 -158 -21 -180 -28
-52 -15 -85 -63 -85 -123 0 -38 6 -51 34 -79 42 -42 73 -43 251 -14 65 10 121
17 123 15 2 -2 -51 -62 -119 -132 -68 -71 -266 -277 -439 -458 -173 -181 -455
-473 -625 -650 -171 -176 -343 -354 -382 -395 l-72 -75 -318 324 -318 324
-170 -8 -169 -8 -28 -29 c-15 -16 -30 -44 -34 -63 -5 -30 -19 -41 -127 -108
-67 -41 -147 -88 -177 -105 l-56 -31 -42 49 c-27 32 -65 60 -107 81 l-65 32 0
198 0 197 35 22 c95 59 155 167 155 279 0 83 -24 143 -84 208 -97 106 -218
133 -342 74 -84 -40 -126 -80 -160 -153 -23 -52 -28 -77 -29 -147 l-1 -83
-134 -95 c-74 -52 -190 -136 -258 -185 l-122 -89 -45 39 c-63 56 -109 75 -187
80 -55 3 -76 0 -121 -21 -72 -33 -130 -87 -161 -150 -21 -41 -26 -65 -26 -127
0 -65 4 -86 30 -138 92 -182 303 -230 466 -105 l46 34 91 -48 c51 -26 148 -77
217 -113 l125 -65 6 -75 c4 -41 10 -88 13 -105 7 -28 -2 -39 -161 -198 l-169
-168 -37 16 c-140 58 -339 -40 -383 -191 -43 -149 25 -312 158 -378 71 -36
180 -37 253 -2 57 26 123 93 156 158 31 60 37 163 14 224 l-18 46 155 155 155
155 87 -41 86 -42 0 -197 0 -197 -49 -18 c-68 -24 -134 -91 -161 -165 -28 -74
-24 -176 9 -241 30 -58 105 -138 156 -164 59 -32 190 -31 262 2 59 26 126 93
151 149 24 57 21 183 -7 254 -25 65 -96 149 -141 168 l-30 12 0 204 c0 178 2
204 16 204 34 0 124 53 167 99 83 89 131 224 120 335 l-5 53 78 43 c44 23 123
71 176 106 53 35 103 64 110 64 7 0 22 -7 32 -15 11 -9 41 -15 69 -15 44 0 53
4 90 40 l40 40 167 -167 c91 -93 247 -252 346 -356 98 -103 186 -187 195 -187
8 0 141 129 294 288 153 158 448 460 654 672 207 212 490 503 629 647 l253
262 -3 -185 -3 -185 28 -25 c22 -19 39 -24 82 -24 44 0 58 5 83 28 37 34 37
37 53 462 13 336 13 336 -44 370 -40 25 -84 24 -252 -6z m-3435 -739 c37 -19
50 -43 50 -90 0 -54 -53 -105 -108 -105 -46 0 -84 26 -102 69 -15 38 -8 70 26
110 21 25 33 31 65 31 22 0 53 -7 69 -15z m-160 -386 l30 -11 0 -189 c0 -172
-2 -190 -17 -195 -63 -18 -130 -64 -188 -127 l-63 -69 -179 92 c-98 51 -193
103 -212 116 l-33 22 113 85 c63 46 192 139 287 206 l174 121 29 -20 c15 -12
42 -26 59 -31z m-883 -293 c41 -44 43 -83 8 -125 -76 -89 -193 -38 -182 79 10
95 106 120 174 46z m1070 -317 c98 -37 152 -190 104 -294 -35 -76 -95 -115
-176 -115 -64 0 -119 25 -149 68 -49 73 -57 122 -31 209 28 94 86 143 172 143
28 0 64 -5 80 -11z m-848 -919 c51 -52 53 -93 5 -149 -21 -26 -33 -31 -67 -31
-99 1 -143 106 -73 176 45 45 92 47 135 4z m815 -304 c112 -47 67 -196 -60
-196 -38 0 -94 59 -94 100 0 42 15 67 53 90 38 24 57 25 101 6z"/>
<path d="M4371 5668 c-44 -120 -234 -656 -361 -1020 l-69 -198 122 0 123 0 37
120 37 120 213 0 213 0 39 -120 39 -120 123 0 c69 0 123 4 123 9 0 5 -40 121
-89 258 -48 136 -146 411 -217 611 l-129 362 -98 0 c-92 0 -98 -1 -106 -22z
m106 -796 c-82 -1 -151 -1 -153 1 -2 2 31 107 73 233 l76 229 77 -230 77 -230
-150 -3z"/>
<path d="M6632 5317 c-73 -204 -172 -483 -221 -619 l-88 -248 127 0 126 0 37
120 37 120 213 0 213 0 39 -120 39 -120 127 0 127 0 -37 103 c-21 56 -120 335
-222 620 l-184 517 -100 0 -100 0 -133 -373z m313 -217 c41 -123 75 -225 75
-227 0 -2 -70 -3 -156 -3 -121 0 -155 3 -152 13 3 6 38 110 78 230 39 120 74
217 76 215 1 -2 37 -105 79 -228z"/>
<path d="M1840 5575 l0 -105 170 0 170 0 0 -510 0 -510 115 0 115 0 0 510 0
510 170 0 170 0 0 105 0 105 -455 0 -455 0 0 -105z"/>
<path d="M2920 5066 l0 -616 116 0 115 0 -3 240 -3 240 86 0 87 0 130 -237
130 -238 135 -3 136 -3 -118 203 c-64 112 -132 229 -149 260 l-33 57 61 32
c77 41 132 100 160 175 30 79 25 222 -9 301 -29 65 -102 135 -179 171 l-57 27
-302 3 -303 3 0 -615z m550 392 c61 -31 85 -76 84 -154 -1 -80 -24 -120 -89
-154 -44 -22 -63 -25 -185 -28 l-135 -4 0 181 0 181 140 0 c126 0 145 -2 185
-22z"/>
<path d="M5190 5065 l0 -615 115 0 115 0 2 376 3 376 204 -299 c113 -164 229
-333 259 -375 l54 -78 99 0 99 0 0 615 0 615 -110 0 -110 0 0 -392 0 -391
-263 389 -264 389 -101 3 -102 3 0 -616z"/>
<path d="M7398 5568 c33 -62 119 -226 191 -364 l131 -251 0 -252 0 -251 120 0
120 0 0 251 0 250 144 272 c79 150 164 314 190 365 l47 93 -128 -3 -127 -3
-121 -257 c-66 -141 -123 -254 -127 -250 -4 4 -61 120 -127 257 l-118 250
-128 3 -127 3 60 -113z"/>
</g>
</svg>
